<svg xmlns="http://www.w3.org/2000/svg" viewBox="0 0 30 30"><polygon points="7.53 8.95 7.6 8.05 7.83 7.83 14.9 14.9 14.19 15.6 7.53 8.95"/><polygon points="7.83 7.12 7.12 7.83 7.02 9.14 14.19 16.31 15.6 14.9 7.83 7.12 7.83 7.12"/><polygon points="7.83 7.83 8.05 7.6 8.95 7.53 15.6 14.19 14.9 14.9 7.83 7.83"/><polygon points="9.14 7.02 7.83 7.12 7.12 7.83 14.9 15.6 16.31 14.19 9.14 7.02 9.14 7.02"/><polygon points="14.9 16.31 15.6 15.6 22.68 22.68 22.45 22.9 21.55 22.97 14.9 16.31"/><polygon points="15.6 14.9 14.19 16.31 21.36 23.48 22.68 23.38 23.38 22.68 15.6 14.9 15.6 14.9"/><polygon points="15.6 15.6 16.31 14.9 22.97 21.55 22.9 22.45 22.68 22.68 15.6 15.6"/><polygon points="16.31 14.19 14.9 15.6 22.68 23.38 23.38 22.68 23.48 21.36 16.31 14.19 16.31 14.19"/><polygon points="8.05 22.9 7.83 22.68 14.9 15.6 15.6 16.31 8.95 22.97 8.05 22.9"/><polygon points="14.9 14.9 7.12 22.68 7.83 23.38 9.14 23.48 16.31 16.31 14.9 14.9 14.9 14.9"/><polygon points="7.6 22.45 7.53 21.55 14.19 14.9 14.9 15.6 7.83 22.68 7.6 22.45"/><polygon points="14.19 14.19 7.02 21.36 7.12 22.68 7.83 23.38 15.6 15.6 14.19 14.19 14.19 14.19"/><polygon points="15.6 14.9 22.68 7.83 22.9 8.05 22.97 8.95 16.31 15.6 15.6 14.9"/><polygon points="22.68 7.12 14.9 14.9 16.31 16.31 23.48 9.14 23.38 7.83 22.68 7.12 22.68 7.12"/><polygon points="14.9 14.19 21.55 7.53 22.45 7.6 22.68 7.83 15.6 14.9 14.9 14.19"/><polygon points="21.36 7.02 14.19 14.19 15.6 15.6 23.38 7.83 22.68 7.12 21.36 7.02 21.36 7.02"/></svg>
